# xmcd
#
# Track frame offsets: 
#        150
#        25888
#        44486
#        54934
#        68816
#        86877
#        117311
#        133675
#        159704
#        175085
#
# Disc length: 2600 seconds
#
# Revision: 0
# Processed by: cddbd v1.4PL0 Copyright (c) Steve Scherf et al.
# Submitted via: ExactAudioCopy v0.90b4
#
DISCID=870a260a
DTITLE=Van Morrison - Shake, Rattle and Roll - Dranouter, disc 1
DYEAR=1998
DGENRE=Celtic
TTITLE0=Much Binding In The March
TTITLE1=Did Ye Get Healed ?
TTITLE2=It's All In The Game
TTITLE3=Days Like This
TTITLE4=Jackie Wilson Said ...
TTITLE5=In The Afternoon
TTITLE6=Shake, Rattle and Roll
TTITLE7=Fire In The Belly
TTITLE8=Domino
TTITLE9=Vanlose Stairway
EXTD=
EXTT0=
EXTT1=
EXTT2=
EXTT3=
EXTT4=
EXTT5=
EXTT6=
EXTT7=
EXTT8=
EXTT9=
PLAYORDER=
